<?xml version="1.0" standalone="no"?>
<!DOCTYPE svg PUBLIC "-//W3C//DTD SVG 20010904//EN"
 "http://www.w3.org/TR/2001/REC-SVG-20010904/DTD/svg10.dtd">
<svg version="1.0" xmlns="http://www.w3.org/2000/svg"
 width="301.000000pt" height="301.000000pt" viewBox="0 0 301.000000 301.000000"
 preserveAspectRatio="xMidYMid meet">
<metadata>
Created by potrace 1.11, written by Peter Selinger 2001-2013
</metadata>
<g transform="translate(0.000000,301.000000) scale(0.100000,-0.100000)"
fill="#000000" stroke="none">
<path d="M1255 2944 c-199 -35 -402 -117 -573 -231 -107 -71 -264 -222 -348
-333 -36 -47 -95 -147 -134 -225 -110 -221 -150 -393 -150 -645 0 -80 7 -186
15 -235 75 -467 370 -866 790 -1071 223 -108 390 -147 640 -147 137 -1 192 3
283 21 445 88 823 375 1025 777 108 217 151 404 150 660 0 250 -39 417 -147
640 -86 176 -214 341 -355 459 -214 178 -452 288 -716 331 -114 19 -372 18
-480 -1z m209 -377 c60 -34 76 -74 76 -188 0 -83 -3 -101 -23 -129 -34 -52
-74 -70 -169 -77 -155 -11 -231 11 -281 79 -15 20 -21 48 -25 106 -5 86 6 134
40 178 35 44 71 53 213 53 116 1 134 -2 169 -22z m-554 -119 c77 -40 85 -59
88 -221 2 -132 1 -145 -20 -181 -35 -60 -75 -76 -189 -76 -83 0 -101 3 -129
23 -64 42 -75 76 -75 222 0 139 7 167 57 211 34 31 74 42 153 43 55 1 81 -4
115 -21z m10 -543 c15 -8 39 -29 52 -47 21 -30 23 -45 26 -173 3 -157 -6 -190
-66 -231 -62 -42 -212 -42 -274 -1 -62 42 -73 76 -73 222 0 112 3 135 20 164
25 42 62 70 106 82 47 12 174 2 209 -16z m542 -252 c62 -36 78 -73 78 -182 0
-114 -16 -154 -76 -189 -36 -21 -49 -22 -181 -20 -162 3 -180 11 -221 89 -20
38 -23 55 -20 132 4 93 16 120 70 160 39 29 83 37 205 33 88 -3 118 -7 145
-23z m926 -6 c59 -39 75 -81 70 -192 -3 -103 -15 -130 -78 -172 -30 -21 -44
-23 -170 -23 -126 0 -140 2 -170 23 -62 42 -75 69 -78 171 -3 78 -1 100 17
133 38 76 89 94 259 89 100 -3 116 -6 150 -29z m-480 -321 c15 -8 41 -28 57
-46 30 -31 30 -33 30 -143 0 -101 -2 -115 -23 -145 -35 -49 -73 -63 -181 -69
-127 -7 -198 8 -239 50 -41 43 -52 75 -52 155 0 112 27 168 95 198 43 19 277
19 313 0z m-649 -116 c46 -13 99 -65 111 -110 5 -19 10 -82 10 -140 0 -90 -3
-112 -22 -150 -37 -73 -73 -90 -188 -90 -84 0 -101 3 -130 23 -68 46 -75 64
-78 212 -3 117 -1 137 17 172 11 22 27 45 35 52 44 37 170 53 245 31z m1213 0
c21 -6 51 -27 71 -49 30 -34 36 -49 42 -107 11 -99 1 -218 -22 -256 -11 -18
-34 -43 -53 -55 -29 -20 -46 -23 -134 -23 -91 0 -105 3 -137 24 -59 40 -69 74
-69 229 0 122 2 137 23 168 45 69 169 99 279 69z"/>
</g>
</svg>
