<?xml version="1.0" encoding="utf-8"?>
<!-- Generator: Adobe Illustrator 21.1.0, SVG Export Plug-In . SVG Version: 6.00 Build 0)  -->
<svg version="1.1" id="Layer_1" xmlns="http://www.w3.org/2000/svg" xmlns:xlink="http://www.w3.org/1999/xlink" x="0px" y="0px"
	 viewBox="0 0 72 72" style="enable-background:new 0 0 72 72;" xml:space="preserve">
<style type="text/css">
	.st0{display:none;fill:url(#SVGID_1_);}
</style>
<linearGradient id="SVGID_1_" gradientUnits="userSpaceOnUse" x1="5.684" y1="18.4971" x2="66.316" y2="53.5029">
	<stop  offset="0" style="stop-color:#00FF00"/>
	<stop  offset="1.266605e-02" style="stop-color:#00FF07"/>
	<stop  offset="9.395343e-02" style="stop-color:#00FF33"/>
	<stop  offset="0.1815" style="stop-color:#00FF5A"/>
	<stop  offset="0.2743" style="stop-color:#00FF7A"/>
	<stop  offset="0.3738" style="stop-color:#00FF94"/>
	<stop  offset="0.4827" style="stop-color:#00FFA9"/>
	<stop  offset="0.6057" style="stop-color:#00FFB7"/>
	<stop  offset="0.7543" style="stop-color:#00FFBF"/>
	<stop  offset="1" style="stop-color:#00FFC2"/>
</linearGradient>
<path class="st0" d="M36,71L36,71C16.7,71,1,55.3,1,36v0C1,16.7,16.7,1,36,1h0c19.3,0,35,15.7,35,35v0C71,55.3,55.3,71,36,71z"/>
<g>
	<g>
		<path d="M36,1C16.7,1,1,16.7,1,36s15.7,35,35,35s35-15.7,35-35S55.3,1,36,1z M22,16.8c0-2.1,1.7-3.8,3.8-3.8h4.5
			c2.1,0,3.8,1.7,3.8,3.8v2.5c0,2.1-1.7,3.8-3.8,3.8h-4.5c-2.1,0-3.8-1.7-3.8-3.8V16.8z M11,19.8c0-2.1,1.7-3.8,3.8-3.8h2.5
			c2.1,0,3.8,1.7,3.8,3.8v4.5c0,2.1-1.7,3.8-3.8,3.8h-2.5c-2.1,0-3.8-1.7-3.8-3.8V19.8z M17.2,41h-2.5c-2.1,0-3.8-1.7-3.8-3.8v-4.5
			c0-2.1,1.7-3.8,3.8-3.8h2.5c2.1,0,3.8,1.7,3.8,3.8v4.5C21,39.3,19.3,41,17.2,41z M30,54.2c0,2.1-1.7,3.8-3.8,3.8h-2.5
			c-2.1,0-3.8-1.7-3.8-3.8v-4.5c0-2.1,1.7-3.8,3.8-3.8h2.5c2.1,0,3.8,1.7,3.8,3.8V54.2z M30.2,45h-4.5c-2.1,0-3.8-1.7-3.8-3.8v-2.5
			c0-2.1,1.7-3.8,3.8-3.8h4.5c2.1,0,3.8,1.7,3.8,3.8v2.5C34,43.3,32.3,45,30.2,45z M45,49.2c0,2.1-1.7,3.8-3.8,3.8h-4.5
			c-2.1,0-3.8-1.7-3.8-3.8v-2.5c0-2.1,1.7-3.8,3.8-3.8h4.5c2.1,0,3.8,1.7,3.8,3.8V49.2z M44,41.2v-2.5c0-2.1,1.7-3.8,3.8-3.8h4.5
			c2.1,0,3.8,1.7,3.8,3.8v2.5c0,2.1-1.7,3.8-3.8,3.8h-4.5C45.7,45,44,43.3,44,41.2z M59,54.2c0,2.1-1.7,3.8-3.8,3.8h-2.5
			c-2.1,0-3.8-1.7-3.8-3.8v-4.5c0-2.1,1.7-3.8,3.8-3.8h2.5c2.1,0,3.8,1.7,3.8,3.8V54.2z"/>
	</g>
</g>
</svg>
