<svg id="Layer_1" data-name="Layer 1" xmlns="http://www.w3.org/2000/svg" xmlns:xlink="http://www.w3.org/1999/xlink" viewBox="0 0 72 72"><defs><style>.cls-1{fill:url(#linear-gradient);}.cls-2{fill:gray;}</style><linearGradient id="linear-gradient" x1="6.55" y1="19" x2="65.45" y2="53" gradientUnits="userSpaceOnUse"><stop offset="0" stop-color="lime"/><stop offset="0.01" stop-color="#00ff07"/><stop offset="0.09" stop-color="#0f3"/><stop offset="0.18" stop-color="#00ff5a"/><stop offset="0.27" stop-color="#00ff7a"/><stop offset="0.37" stop-color="#00ff94"/><stop offset="0.48" stop-color="#00ffa9"/><stop offset="0.61" stop-color="#00ffb7"/><stop offset="0.75" stop-color="#00ffbf"/><stop offset="1" stop-color="#00ffc2"/></linearGradient></defs><title>Personal Logo</title><rect class="cls-1" x="2" y="2" width="68" height="68" rx="34" ry="34"/><path class="cls-2" d="M36,1A35,35,0,1,0,71,36,35,35,0,0,0,36,1ZM25,13.76A3.76,3.76,0,0,1,28.76,10h4.48A3.76,3.76,0,0,1,37,13.76v2.48A3.76,3.76,0,0,1,33.24,20H28.76A3.76,3.76,0,0,1,25,16.24Zm-11,3A3.76,3.76,0,0,1,17.76,13h2.48A3.76,3.76,0,0,1,24,16.76v4.48A3.76,3.76,0,0,1,20.24,25H17.76A3.76,3.76,0,0,1,14,21.24ZM20.24,38H17.76A3.76,3.76,0,0,1,14,34.24V29.76A3.76,3.76,0,0,1,17.76,26h2.48A3.76,3.76,0,0,1,24,29.76v4.48A3.76,3.76,0,0,1,20.24,38ZM33,51.24A3.76,3.76,0,0,1,29.24,55H26.76A3.76,3.76,0,0,1,23,51.24V46.76A3.76,3.76,0,0,1,26.76,43h2.48A3.76,3.76,0,0,1,33,46.76ZM33.24,42H28.76A3.76,3.76,0,0,1,25,38.24V35.76A3.76,3.76,0,0,1,28.76,32h4.48A3.76,3.76,0,0,1,37,35.76v2.48A3.76,3.76,0,0,1,33.24,42ZM48,46.24A3.76,3.76,0,0,1,44.24,50H39.76A3.76,3.76,0,0,1,36,46.24V43.76A3.76,3.76,0,0,1,39.76,40h4.48A3.76,3.76,0,0,1,48,43.76Zm-1-8V35.76A3.76,3.76,0,0,1,50.76,32h4.48A3.76,3.76,0,0,1,59,35.76v2.48A3.76,3.76,0,0,1,55.24,42H50.76A3.76,3.76,0,0,1,47,38.24ZM58.24,55H55.76A3.76,3.76,0,0,1,52,51.24V46.76A3.76,3.76,0,0,1,55.76,43h2.48A3.76,3.76,0,0,1,62,46.76v4.48A3.76,3.76,0,0,1,58.24,55Z"/></svg>